<svg width="24" height="25" viewBox="0 0 24 25" fill="none" xmlns="http://www.w3.org/2000/svg">
<rect y="0.666656" width="24" height="24" rx="4.8" fill="white"/>
<path d="M5.25 7.75L9.75 12.25L11.25 10.75L6 5.5L5.25 5.5L5.25 7.75ZM12.375 13C12.375 13.0995 12.3355 13.1948 12.2652 13.2652C12.1948 13.3355 12.0995 13.375 12 13.375C11.9005 13.375 11.8052 13.3355 11.7348 13.2652C11.6645 13.1948 11.625 13.0995 11.625 13C11.625 12.9005 11.6645 12.8052 11.7348 12.7348C11.8052 12.6645 11.9005 12.625 12 12.625C12.0995 12.625 12.1948 12.6645 12.2652 12.7348C12.3355 12.8052 12.375 12.9005 12.375 13ZM18 17.5C18 17.8978 17.842 18.2794 17.5607 18.5607C17.2794 18.842 16.8978 19 16.5 19C15.6675 19 15 18.325 15 17.5C15 17.1022 15.158 16.7206 15.4393 16.4393C15.7206 16.158 16.1022 16 16.5 16C17.3325 16 18 16.675 18 17.5ZM9 17.5C9 17.8978 8.84196 18.2794 8.56066 18.5607C8.27936 18.842 7.89782 19 7.5 19C6.6675 19 6 18.325 6 17.5C6 17.1022 6.15804 16.7206 6.43934 16.4393C6.72064 16.158 7.10217 16 7.5 16C8.3325 16 9 16.675 9 17.5ZM8.73 14.77C8.355 14.5975 7.9425 14.5 7.5 14.5C6.70435 14.5 5.94129 14.8161 5.37868 15.3787C4.81607 15.9413 4.5 16.7044 4.5 17.5C4.5 18.2956 4.81607 19.0587 5.37868 19.6213C5.94129 20.1839 6.70435 20.5 7.5 20.5C8.29565 20.5 9.05871 20.1839 9.62132 19.6213C10.1839 19.0587 10.5 18.2956 10.5 17.5C10.5 17.0575 10.4025 16.645 10.23 16.27L12 14.5L13.77 16.27C13.5975 16.645 13.5 17.0575 13.5 17.5C13.5 18.2956 13.8161 19.0587 14.3787 19.6213C14.9413 20.1839 15.7043 20.5 16.5 20.5C17.2956 20.5 18.0587 20.1839 18.6213 19.6213C19.1839 19.0587 19.5 18.2956 19.5 17.5C19.5 16.7044 19.1839 15.9413 18.6213 15.3787C18.0587 14.8161 17.2956 14.5 16.5 14.5C16.0575 14.5 15.645 14.5975 15.27 14.77L13.5 13L18.75 7.75V5.5L18 5.5L8.73 14.77Z" fill="#1F1F1F"/>
</svg>
